HIERARCHY
ROOT Hips
{
  OFFSET 0.000000 0.000000 0.000000
  CHANNELS 6 Xposition Yposition Zposition Zrotation Yrotation Xrotation
  JOINT Spine
  {
    OFFSET -0.026513 1.862746 -0.111518
    CHANNELS 3 Zrotation Yrotation Xrotation
    JOINT Spine1
    {
      OFFSET 0.010195 1.862243 0.040875
      CHANNELS 3 Zrotation Yrotation Xrotation
      JOINT Spine2
      {
        OFFSET 0.021726 1.867876 0.092680
        CHANNELS 3 Zrotation Yrotation Xrotation
        JOINT Neck
        {
          OFFSET -0.019262 1.805121 0.088669
          CHANNELS 3 Zrotation Yrotation Xrotation
          JOINT Head
          {
            OFFSET 0.015918 1.825870 -0.140009
            CHANNELS 3 Zrotation Yrotation Xrotation
            End Site
            {
              OFFSET 0 0 0
            }
          }
        }
        JOINT LeftShoulder
        {
          OFFSET 3.471160 1.513764 0.144911
          CHANNELS 3 Zrotation Yrotation Xrotation
          JOINT LeftArm
          {
            OFFSET 4.780950 -0.000000 0.000000
            CHANNELS 3 Zrotation Yrotation Xrotation
            JOINT LeftForeArm
            {
              OFFSET 3.586150 -0.000000 -0.000000
              CHANNELS 3 Zrotation Yrotation Xrotation
              JOINT LeftHand
              {
                OFFSET 0.659812 -0.000000 0.000000
                CHANNELS 3 Zrotation Yrotation Xrotation
                JOINT LeftHandIndex1
                {
                  OFFSET 0.531957 -0.000000 0.000000
                  CHANNELS 3 Zrotation Yrotation Xrotation
                  End Site
                  {
                    OFFSET 0 0 0
                  }
                }
              }
            }
          }
        }
        JOINT RightShoulder
        {
          OFFSET -3.317249 1.612162 0.351560
          CHANNELS 3 Zrotation Yrotation Xrotation
          JOINT RightArm
          {
            OFFSET -4.489130 -0.000000 0.000000
            CHANNELS 3 Zrotation Yrotation Xrotation
            JOINT RightForeArm
            {
              OFFSET -3.705100 -0.000000 0.000000
              CHANNELS 3 Zrotation Yrotation Xrotation
              JOINT RightHand
              {
                OFFSET -0.449136 -0.000000 0.000000
                CHANNELS 3 Zrotation Yrotation Xrotation
                JOINT RightHandIndex1
                {
                  OFFSET -0.362105 -0.000000 0.000000
                  CHANNELS 3 Zrotation Yrotation Xrotation
                  End Site
                  {
                    OFFSET 0 0 0
                  }
                }
              }
            }
          }
        }
      }
    }
  }
  JOINT LeftUpLeg
  {
    OFFSET 2.505283 -6.883214 0.000000
    CHANNELS 3 Zrotation Yrotation Xrotation
    JOINT LeftLeg
    {
      OFFSET 2.632439 -7.232573 0.000000
      CHANNELS 3 Zrotation Yrotation Xrotation
      JOINT LeftFoot
      {
        OFFSET 0.236910 -0.650903 1.727503
        CHANNELS 3 Zrotation Yrotation Xrotation
        JOINT LeftToeBase
        {
          OFFSET 0.000000 -0.000000 0.925608
          CHANNELS 3 Zrotation Yrotation Xrotation
          End Site
          {
            OFFSET 0 0 0
          }
        }
      }
    }
  }
  JOINT RightUpLeg
  {
    OFFSET -2.545515 -6.993750 0.000000
    CHANNELS 3 Zrotation Yrotation Xrotation
    JOINT RightLeg
    {
      OFFSET -2.660266 -7.309026 0.000000
      CHANNELS 3 Zrotation Yrotation Xrotation
      JOINT RightFoot
      {
        OFFSET -0.229805 -0.631384 2.039586
        CHANNELS 3 Zrotation Yrotation Xrotation
        JOINT RightToeBase
        {
          OFFSET -0.000000 -0.000000 1.070600
          CHANNELS 3 Zrotation Yrotation Xrotation
          End Site
          {
            OFFSET 0 0 0
          }
        }
      }
    }
  }
}
MOTION
Frames: 5
Frame Time: 0.00833333
-0.707873 18.280800 4.911050 -2.864490 13.458500 2.089310 -9.938110 -4.630370 -20.697500 0.000000 0.000000 37.704500 0.790679 0.000000 -19.809600 0.000000 0.000000 -55.932700 16.418200 -10.263000 -7.546370 0.000000 0.000000 25.369500 -8.063370 0.000000 -24.942300 0.000000 0.000000 -17.796600 1.976550 1.320580 20.412800 4.330560 2.683180 1.239880 2.867830 1.303880 -10.236600 -9.699360 -8.908580 -14.208200 1.720530 -5.459690 10.552700 -0.000000 0.000000 0.000000 66.866300 -40.380600 17.865000 0.000000 0.000000 108.948000 -32.866300 0.000000 -17.710700 0.000000 0.000000 7.125020 -0.000000 0.000000 0.000000 -50.655000 -6.412050 -12.277700 0.000000 0.000000 137.859000 -11.199100 0.000000 -9.952720 0.000000 0.000000 7.125020
-0.754435 18.298200 4.911030 -2.704720 14.673200 2.177980 -9.930330 -5.219140 -20.922600 0.000000 0.000000 37.303000 0.552593 0.000000 -19.364100 0.000000 0.000000 -56.036600 16.464100 -10.482500 -7.502200 0.000000 0.000000 25.427500 -8.622040 0.000000 -25.545700 0.000000 0.000000 -17.100400 1.791940 1.492090 20.553500 3.978530 2.836560 1.200320 2.536960 1.374200 -10.353100 -10.303000 -9.505660 -13.736500 2.167600 -5.860910 10.579400 -0.000000 0.000000 0.000000 67.032500 -41.386000 17.691100 0.000000 0.000000 109.217000 -32.747100 0.000000 -17.659600 0.000000 0.000000 7.125020 -0.000000 0.000000 0.000000 -49.219800 -8.047540 -10.617500 0.000000 0.000000 135.882000 -11.208000 0.000000 -8.779750 0.000000 0.000000 7.125020
-0.806060 18.313200 4.909730 -2.424050 15.835400 2.301100 -10.043300 -5.751810 -21.158300 0.000000 0.000000 36.938800 0.342023 0.000000 -19.017700 0.000000 0.000000 -56.105900 16.403300 -10.734600 -7.608590 0.000000 0.000000 25.725700 -9.060160 0.000000 -26.119400 0.000000 0.000000 -16.412700 1.559410 1.744420 20.696800 3.516670 3.068720 1.204540 2.087900 1.480250 -10.419100 -10.895700 -10.210100 -13.002500 2.674670 -6.351800 10.485100 -0.000000 -0.000000 0.000000 67.393000 -42.374200 17.273300 0.000000 0.000000 109.854000 -32.470500 0.000000 -17.150800 0.000000 0.000000 7.125020 -0.000000 -0.000000 0.000000 -47.387900 -9.787250 -8.531250 0.000000 0.000000 133.130000 -11.825300 0.000000 -7.363870 0.000000 0.000000 7.125020
-0.859481 18.321300 4.904760 -1.926490 16.802600 2.479700 -10.414400 -6.108020 -21.378700 0.000000 0.000000 36.660400 0.242289 0.000000 -18.784400 0.000000 0.000000 -56.258500 16.095100 -11.031200 -7.910690 0.000000 0.000000 26.323600 -9.239620 0.000000 -26.579900 0.000000 0.000000 -15.707500 1.162430 2.096320 20.827800 2.945300 3.375300 1.290800 1.590160 1.626110 -10.388000 -11.450700 -10.989400 -12.144100 3.230520 -6.907700 10.349000 -0.000000 -0.000000 0.000000 68.024600 -43.260200 16.478400 0.000000 0.000000 110.802000 -32.051800 0.000000 -16.574700 0.000000 0.000000 7.125020 -0.000000 -0.000000 0.000000 -45.087900 -11.472500 -5.846450 0.000000 0.000000 129.105000 -12.486800 0.000000 -6.403720 0.000000 0.000000 7.125020
-0.912017 18.321300 4.896120 -1.264440 17.339000 2.686490 -10.998800 -6.186570 -21.538400 0.000000 0.000000 36.509400 0.266628 0.000000 -18.621300 0.000000 0.000000 -56.504800 15.585700 -11.208600 -8.439970 0.000000 0.000000 27.244600 -9.171010 0.000000 -26.938700 0.000000 0.000000 -14.710200 0.678664 2.519790 20.907700 2.258700 3.735690 1.533190 1.004360 1.799770 -10.149700 -12.068200 -11.735600 -11.366200 3.910840 -7.444960 10.235700 -0.000000 0.000000 0.000000 68.985800 -43.777200 15.214800 0.000000 0.000000 112.112000 -31.545600 0.000000 -15.706100 0.000000 0.000000 7.125020 -0.000000 0.000000 0.000000 -42.517000 -12.621300 -2.434130 0.000000 0.000000 123.260000 -12.056400 0.000000 -7.420310 0.000000 0.000000 7.125020
